G04 (created by PCBNEW (2013-07-07 BZR 4022)-stable) date 11/12/2014 11:01:20 PM*
%MOIN*%
G04 Gerber Fmt 3.4, Leading zero omitted, Abs format*
%FSLAX34Y34*%
G01*
G70*
G90*
G04 APERTURE LIST*
%ADD10C,0.00590551*%
%ADD11R,0.0291339X0.0964567*%
%ADD12C,0.035*%
%ADD13C,0.01*%
G04 APERTURE END LIST*
G54D10*
G54D11*
X79252Y-54606D03*
X79752Y-54606D03*
X80252Y-54606D03*
X80752Y-54606D03*
X81252Y-54606D03*
X81252Y-56161D03*
X80752Y-56161D03*
X80252Y-56161D03*
X79752Y-56161D03*
X79252Y-56161D03*
G54D12*
X80741Y-57041D03*
X79250Y-56156D03*
X78363Y-56165D03*
X77789Y-55755D03*
X77805Y-54015D03*
X80741Y-53537D03*
X77810Y-53539D03*
X80276Y-55283D03*
X81306Y-56178D03*
X79754Y-53897D03*
X81983Y-55285D03*
X79227Y-54720D03*
X82676Y-54814D03*
X82676Y-56623D03*
X79007Y-57033D03*
X81777Y-54169D03*
X78444Y-55373D03*
G54D13*
X80752Y-56161D02*
X80752Y-57030D01*
X80752Y-57030D02*
X80741Y-57041D01*
X79252Y-56158D02*
X79252Y-56161D01*
X79250Y-56156D02*
X79252Y-56158D01*
X78366Y-56161D02*
X79252Y-56161D01*
X78363Y-56165D02*
X78366Y-56161D01*
X77789Y-54031D02*
X77789Y-55755D01*
X77805Y-54015D02*
X77789Y-54031D01*
X80740Y-53539D02*
X77810Y-53539D01*
X80740Y-53539D02*
X80741Y-53537D01*
X80252Y-55259D02*
X80252Y-54606D01*
X80276Y-55283D02*
X80252Y-55259D01*
X81289Y-56161D02*
X81252Y-56161D01*
X81306Y-56178D02*
X81289Y-56161D01*
X79752Y-53899D02*
X79752Y-54606D01*
X79754Y-53897D02*
X79752Y-53899D01*
X80752Y-55268D02*
X80752Y-54606D01*
X80730Y-55290D02*
X80752Y-55268D01*
X81978Y-55290D02*
X80730Y-55290D01*
X81983Y-55285D02*
X81978Y-55290D01*
X79252Y-54695D02*
X79252Y-54606D01*
X79227Y-54720D02*
X79252Y-54695D01*
X82676Y-56623D02*
X82676Y-54814D01*
X79247Y-54789D02*
X79252Y-54784D01*
X79252Y-54784D02*
X79252Y-54606D01*
X80252Y-57084D02*
X80252Y-56161D01*
X80244Y-57092D02*
X80252Y-57084D01*
X79066Y-57092D02*
X80244Y-57092D01*
X79007Y-57033D02*
X79066Y-57092D01*
X81339Y-54606D02*
X81252Y-54606D01*
X81777Y-54169D02*
X81339Y-54606D01*
X79752Y-55509D02*
X79752Y-56161D01*
X79753Y-55508D02*
X79752Y-55509D01*
X78579Y-55508D02*
X79753Y-55508D01*
X78444Y-55373D02*
X78579Y-55508D01*
M02*
