G04 (created by PCBNEW (2013-07-07 BZR 4022)-stable) date 11/12/2014 11:01:20 PM*
%MOIN*%
G04 Gerber Fmt 3.4, Leading zero omitted, Abs format*
%FSLAX34Y34*%
G01*
G70*
G90*
G04 APERTURE LIST*
%ADD10C,0.00590551*%
%ADD11C,0.00984252*%
%ADD12C,0.0019685*%
%ADD13C,0.00492126*%
G04 APERTURE END LIST*
G54D10*
G54D11*
X81368Y-54339D02*
X81180Y-54339D01*
X81180Y-53945D01*
X81499Y-54133D02*
X81630Y-54133D01*
X81687Y-54339D02*
X81499Y-54339D01*
X81499Y-53945D01*
X81687Y-53945D01*
X81855Y-54339D02*
X81855Y-53945D01*
X81949Y-53945D01*
X82005Y-53964D01*
X82043Y-54001D01*
X82062Y-54039D01*
X82080Y-54114D01*
X82080Y-54170D01*
X82062Y-54245D01*
X82043Y-54283D01*
X82005Y-54320D01*
X81949Y-54339D01*
X81855Y-54339D01*
X82418Y-54076D02*
X82418Y-54339D01*
X82324Y-53926D02*
X82230Y-54208D01*
X82474Y-54208D01*
X81284Y-56502D02*
X81096Y-56502D01*
X81096Y-56108D01*
X81415Y-56296D02*
X81546Y-56296D01*
X81603Y-56502D02*
X81415Y-56502D01*
X81415Y-56108D01*
X81603Y-56108D01*
X81771Y-56502D02*
X81771Y-56108D01*
X81865Y-56108D01*
X81921Y-56127D01*
X81959Y-56164D01*
X81978Y-56202D01*
X81996Y-56277D01*
X81996Y-56333D01*
X81978Y-56408D01*
X81959Y-56446D01*
X81921Y-56483D01*
X81865Y-56502D01*
X81771Y-56502D01*
X82128Y-56108D02*
X82371Y-56108D01*
X82240Y-56258D01*
X82296Y-56258D01*
X82334Y-56277D01*
X82353Y-56296D01*
X82371Y-56333D01*
X82371Y-56427D01*
X82353Y-56464D01*
X82334Y-56483D01*
X82296Y-56502D01*
X82184Y-56502D01*
X82146Y-56483D01*
X82128Y-56464D01*
X78288Y-56537D02*
X78100Y-56537D01*
X78100Y-56143D01*
X78419Y-56331D02*
X78550Y-56331D01*
X78607Y-56537D02*
X78419Y-56537D01*
X78419Y-56143D01*
X78607Y-56143D01*
X78775Y-56537D02*
X78775Y-56143D01*
X78869Y-56143D01*
X78925Y-56162D01*
X78963Y-56199D01*
X78982Y-56237D01*
X79000Y-56312D01*
X79000Y-56368D01*
X78982Y-56443D01*
X78963Y-56481D01*
X78925Y-56518D01*
X78869Y-56537D01*
X78775Y-56537D01*
X79150Y-56181D02*
X79169Y-56162D01*
X79207Y-56143D01*
X79300Y-56143D01*
X79338Y-56162D01*
X79357Y-56181D01*
X79375Y-56218D01*
X79375Y-56256D01*
X79357Y-56312D01*
X79132Y-56537D01*
X79375Y-56537D01*
X78359Y-54309D02*
X78171Y-54309D01*
X78171Y-53915D01*
X78490Y-54103D02*
X78621Y-54103D01*
X78678Y-54309D02*
X78490Y-54309D01*
X78490Y-53915D01*
X78678Y-53915D01*
X78846Y-54309D02*
X78846Y-53915D01*
X78940Y-53915D01*
X78996Y-53934D01*
X79034Y-53971D01*
X79053Y-54009D01*
X79071Y-54084D01*
X79071Y-54140D01*
X79053Y-54215D01*
X79034Y-54253D01*
X78996Y-54290D01*
X78940Y-54309D01*
X78846Y-54309D01*
X79446Y-54309D02*
X79221Y-54309D01*
X79334Y-54309D02*
X79334Y-53915D01*
X79296Y-53971D01*
X79259Y-54009D01*
X79221Y-54028D01*
G54D12*
X77781Y-53183D02*
X79788Y-53183D01*
X79788Y-53183D02*
X79788Y-55190D01*
X79788Y-55190D02*
X77781Y-55190D01*
X77781Y-55190D02*
X77781Y-53183D01*
X80702Y-53183D02*
X82710Y-53183D01*
X82710Y-53183D02*
X82710Y-55190D01*
X82710Y-55190D02*
X80702Y-55190D01*
X80702Y-55190D02*
X80702Y-53183D01*
X77781Y-55388D02*
X79788Y-55388D01*
X79788Y-55388D02*
X79788Y-57395D01*
X79788Y-57395D02*
X77781Y-57395D01*
X77781Y-57395D02*
X77781Y-55388D01*
X80702Y-55388D02*
X82710Y-55388D01*
X82710Y-55388D02*
X82710Y-57395D01*
X82710Y-57395D02*
X80702Y-57395D01*
X80702Y-57395D02*
X80702Y-55388D01*
G54D13*
X81337Y-57367D02*
X81140Y-57367D01*
X81140Y-57320D01*
X81150Y-57292D01*
X81168Y-57273D01*
X81187Y-57264D01*
X81225Y-57254D01*
X81253Y-57254D01*
X81290Y-57264D01*
X81309Y-57273D01*
X81328Y-57292D01*
X81337Y-57320D01*
X81337Y-57367D01*
X81140Y-57133D02*
X81140Y-57095D01*
X81150Y-57076D01*
X81168Y-57058D01*
X81206Y-57048D01*
X81272Y-57048D01*
X81309Y-57058D01*
X81328Y-57076D01*
X81337Y-57095D01*
X81337Y-57133D01*
X81328Y-57151D01*
X81309Y-57170D01*
X81272Y-57179D01*
X81206Y-57179D01*
X81168Y-57170D01*
X81150Y-57151D01*
X81140Y-57133D01*
X81206Y-56879D02*
X81337Y-56879D01*
X81131Y-56926D02*
X81272Y-56973D01*
X81272Y-56851D01*
X80843Y-57338D02*
X80646Y-57338D01*
X80646Y-57291D01*
X80656Y-57263D01*
X80674Y-57244D01*
X80693Y-57235D01*
X80731Y-57225D01*
X80759Y-57225D01*
X80796Y-57235D01*
X80815Y-57244D01*
X80834Y-57263D01*
X80843Y-57291D01*
X80843Y-57338D01*
X80646Y-57104D02*
X80646Y-57066D01*
X80656Y-57047D01*
X80674Y-57029D01*
X80712Y-57019D01*
X80778Y-57019D01*
X80815Y-57029D01*
X80834Y-57047D01*
X80843Y-57066D01*
X80843Y-57104D01*
X80834Y-57122D01*
X80815Y-57141D01*
X80778Y-57150D01*
X80712Y-57150D01*
X80674Y-57141D01*
X80656Y-57122D01*
X80646Y-57104D01*
X80646Y-56954D02*
X80646Y-56832D01*
X80721Y-56897D01*
X80721Y-56869D01*
X80731Y-56850D01*
X80740Y-56841D01*
X80759Y-56832D01*
X80806Y-56832D01*
X80824Y-56841D01*
X80834Y-56850D01*
X80843Y-56869D01*
X80843Y-56925D01*
X80834Y-56944D01*
X80824Y-56954D01*
X80344Y-57349D02*
X80147Y-57349D01*
X80147Y-57302D01*
X80157Y-57274D01*
X80175Y-57255D01*
X80194Y-57246D01*
X80232Y-57236D01*
X80260Y-57236D01*
X80297Y-57246D01*
X80316Y-57255D01*
X80335Y-57274D01*
X80344Y-57302D01*
X80344Y-57349D01*
X80147Y-57115D02*
X80147Y-57077D01*
X80157Y-57058D01*
X80175Y-57040D01*
X80213Y-57030D01*
X80279Y-57030D01*
X80316Y-57040D01*
X80335Y-57058D01*
X80344Y-57077D01*
X80344Y-57115D01*
X80335Y-57133D01*
X80316Y-57152D01*
X80279Y-57161D01*
X80213Y-57161D01*
X80175Y-57152D01*
X80157Y-57133D01*
X80147Y-57115D01*
X80166Y-56955D02*
X80157Y-56946D01*
X80147Y-56927D01*
X80147Y-56880D01*
X80157Y-56861D01*
X80166Y-56852D01*
X80185Y-56843D01*
X80204Y-56843D01*
X80232Y-56852D01*
X80344Y-56965D01*
X80344Y-56843D01*
X79853Y-57340D02*
X79656Y-57340D01*
X79656Y-57293D01*
X79666Y-57265D01*
X79684Y-57246D01*
X79703Y-57237D01*
X79741Y-57227D01*
X79769Y-57227D01*
X79806Y-57237D01*
X79825Y-57246D01*
X79844Y-57265D01*
X79853Y-57293D01*
X79853Y-57340D01*
X79656Y-57106D02*
X79656Y-57068D01*
X79666Y-57049D01*
X79684Y-57031D01*
X79722Y-57021D01*
X79788Y-57021D01*
X79825Y-57031D01*
X79844Y-57049D01*
X79853Y-57068D01*
X79853Y-57106D01*
X79844Y-57124D01*
X79825Y-57143D01*
X79788Y-57152D01*
X79722Y-57152D01*
X79684Y-57143D01*
X79666Y-57124D01*
X79656Y-57106D01*
X79853Y-56834D02*
X79853Y-56946D01*
X79853Y-56890D02*
X79656Y-56890D01*
X79684Y-56909D01*
X79703Y-56927D01*
X79713Y-56946D01*
X79859Y-53884D02*
X79662Y-53884D01*
X79662Y-53837D01*
X79672Y-53809D01*
X79690Y-53790D01*
X79709Y-53781D01*
X79747Y-53771D01*
X79775Y-53771D01*
X79812Y-53781D01*
X79831Y-53790D01*
X79850Y-53809D01*
X79859Y-53837D01*
X79859Y-53884D01*
X79859Y-53687D02*
X79662Y-53687D01*
X79859Y-53490D02*
X79859Y-53602D01*
X79859Y-53546D02*
X79662Y-53546D01*
X79690Y-53565D01*
X79709Y-53584D01*
X79719Y-53602D01*
X80372Y-53889D02*
X80175Y-53889D01*
X80175Y-53842D01*
X80185Y-53814D01*
X80203Y-53795D01*
X80222Y-53786D01*
X80260Y-53776D01*
X80288Y-53776D01*
X80325Y-53786D01*
X80344Y-53795D01*
X80363Y-53814D01*
X80372Y-53842D01*
X80372Y-53889D01*
X80372Y-53692D02*
X80175Y-53692D01*
X80194Y-53607D02*
X80185Y-53598D01*
X80175Y-53579D01*
X80175Y-53532D01*
X80185Y-53514D01*
X80194Y-53504D01*
X80213Y-53495D01*
X80232Y-53495D01*
X80260Y-53504D01*
X80372Y-53617D01*
X80372Y-53495D01*
X80878Y-53878D02*
X80681Y-53878D01*
X80681Y-53831D01*
X80691Y-53803D01*
X80709Y-53784D01*
X80728Y-53775D01*
X80766Y-53765D01*
X80794Y-53765D01*
X80831Y-53775D01*
X80850Y-53784D01*
X80869Y-53803D01*
X80878Y-53831D01*
X80878Y-53878D01*
X80878Y-53681D02*
X80681Y-53681D01*
X80681Y-53606D02*
X80681Y-53484D01*
X80756Y-53550D01*
X80756Y-53521D01*
X80766Y-53503D01*
X80775Y-53493D01*
X80794Y-53484D01*
X80841Y-53484D01*
X80859Y-53493D01*
X80869Y-53503D01*
X80878Y-53521D01*
X80878Y-53578D01*
X80869Y-53596D01*
X80859Y-53606D01*
X81361Y-53857D02*
X81164Y-53857D01*
X81164Y-53810D01*
X81174Y-53782D01*
X81192Y-53763D01*
X81211Y-53754D01*
X81249Y-53744D01*
X81277Y-53744D01*
X81314Y-53754D01*
X81333Y-53763D01*
X81352Y-53782D01*
X81361Y-53810D01*
X81361Y-53857D01*
X81361Y-53660D02*
X81164Y-53660D01*
X81230Y-53482D02*
X81361Y-53482D01*
X81155Y-53529D02*
X81296Y-53575D01*
X81296Y-53454D01*
X79120Y-57378D02*
X79317Y-57312D01*
X79120Y-57247D01*
X79317Y-57181D02*
X79120Y-57181D01*
X79120Y-57134D01*
X79130Y-57106D01*
X79148Y-57087D01*
X79167Y-57078D01*
X79205Y-57069D01*
X79233Y-57069D01*
X79270Y-57078D01*
X79289Y-57087D01*
X79308Y-57106D01*
X79317Y-57134D01*
X79317Y-57181D01*
X79317Y-56984D02*
X79120Y-56984D01*
X79120Y-56937D01*
X79130Y-56909D01*
X79148Y-56891D01*
X79167Y-56881D01*
X79205Y-56872D01*
X79233Y-56872D01*
X79270Y-56881D01*
X79289Y-56891D01*
X79308Y-56909D01*
X79317Y-56937D01*
X79317Y-56984D01*
X79128Y-53913D02*
X79325Y-53847D01*
X79128Y-53781D01*
X79316Y-53725D02*
X79325Y-53697D01*
X79325Y-53650D01*
X79316Y-53631D01*
X79306Y-53622D01*
X79288Y-53613D01*
X79269Y-53613D01*
X79250Y-53622D01*
X79241Y-53631D01*
X79231Y-53650D01*
X79222Y-53688D01*
X79213Y-53706D01*
X79203Y-53716D01*
X79185Y-53725D01*
X79166Y-53725D01*
X79147Y-53716D01*
X79138Y-53706D01*
X79128Y-53688D01*
X79128Y-53641D01*
X79138Y-53613D01*
X79316Y-53538D02*
X79325Y-53510D01*
X79325Y-53463D01*
X79316Y-53444D01*
X79306Y-53435D01*
X79288Y-53425D01*
X79269Y-53425D01*
X79250Y-53435D01*
X79241Y-53444D01*
X79231Y-53463D01*
X79222Y-53500D01*
X79213Y-53519D01*
X79203Y-53528D01*
X79185Y-53538D01*
X79166Y-53538D01*
X79147Y-53528D01*
X79138Y-53519D01*
X79128Y-53500D01*
X79128Y-53453D01*
X79138Y-53425D01*
M02*
