G04 (created by PCBNEW (2013-07-07 BZR 4022)-stable) date 11/12/2014 11:01:20 PM*
%MOIN*%
G04 Gerber Fmt 3.4, Leading zero omitted, Abs format*
%FSLAX34Y34*%
G01*
G70*
G90*
G04 APERTURE LIST*
%ADD10C,0.00590551*%
%ADD11C,0.00492126*%
G04 APERTURE END LIST*
G54D10*
G54D11*
X79112Y-53813D02*
X79309Y-53747D01*
X79112Y-53681D01*
X79300Y-53625D02*
X79309Y-53597D01*
X79309Y-53550D01*
X79300Y-53531D01*
X79290Y-53522D01*
X79272Y-53513D01*
X79253Y-53513D01*
X79234Y-53522D01*
X79225Y-53531D01*
X79215Y-53550D01*
X79206Y-53588D01*
X79197Y-53606D01*
X79187Y-53616D01*
X79169Y-53625D01*
X79150Y-53625D01*
X79131Y-53616D01*
X79122Y-53606D01*
X79112Y-53588D01*
X79112Y-53541D01*
X79122Y-53513D01*
X79300Y-53438D02*
X79309Y-53410D01*
X79309Y-53363D01*
X79300Y-53344D01*
X79290Y-53335D01*
X79272Y-53325D01*
X79253Y-53325D01*
X79234Y-53335D01*
X79225Y-53344D01*
X79215Y-53363D01*
X79206Y-53400D01*
X79197Y-53419D01*
X79187Y-53428D01*
X79169Y-53438D01*
X79150Y-53438D01*
X79131Y-53428D01*
X79122Y-53419D01*
X79112Y-53400D01*
X79112Y-53353D01*
X79122Y-53325D01*
X79132Y-57372D02*
X79329Y-57306D01*
X79132Y-57241D01*
X79329Y-57175D02*
X79132Y-57175D01*
X79132Y-57128D01*
X79142Y-57100D01*
X79160Y-57081D01*
X79179Y-57072D01*
X79217Y-57063D01*
X79245Y-57063D01*
X79282Y-57072D01*
X79301Y-57081D01*
X79320Y-57100D01*
X79329Y-57128D01*
X79329Y-57175D01*
X79329Y-56978D02*
X79132Y-56978D01*
X79132Y-56931D01*
X79142Y-56903D01*
X79160Y-56885D01*
X79179Y-56875D01*
X79217Y-56866D01*
X79245Y-56866D01*
X79282Y-56875D01*
X79301Y-56885D01*
X79320Y-56903D01*
X79329Y-56931D01*
X79329Y-56978D01*
X81349Y-57418D02*
X81152Y-57418D01*
X81152Y-57371D01*
X81162Y-57343D01*
X81180Y-57324D01*
X81199Y-57315D01*
X81237Y-57305D01*
X81265Y-57305D01*
X81302Y-57315D01*
X81321Y-57324D01*
X81340Y-57343D01*
X81349Y-57371D01*
X81349Y-57418D01*
X81152Y-57184D02*
X81152Y-57146D01*
X81162Y-57127D01*
X81180Y-57109D01*
X81218Y-57099D01*
X81284Y-57099D01*
X81321Y-57109D01*
X81340Y-57127D01*
X81349Y-57146D01*
X81349Y-57184D01*
X81340Y-57202D01*
X81321Y-57221D01*
X81284Y-57230D01*
X81218Y-57230D01*
X81180Y-57221D01*
X81162Y-57202D01*
X81152Y-57184D01*
X81218Y-56930D02*
X81349Y-56930D01*
X81143Y-56977D02*
X81284Y-57024D01*
X81284Y-56902D01*
X80859Y-57398D02*
X80662Y-57398D01*
X80662Y-57351D01*
X80672Y-57323D01*
X80690Y-57304D01*
X80709Y-57295D01*
X80747Y-57285D01*
X80775Y-57285D01*
X80812Y-57295D01*
X80831Y-57304D01*
X80850Y-57323D01*
X80859Y-57351D01*
X80859Y-57398D01*
X80662Y-57164D02*
X80662Y-57126D01*
X80672Y-57107D01*
X80690Y-57089D01*
X80728Y-57079D01*
X80794Y-57079D01*
X80831Y-57089D01*
X80850Y-57107D01*
X80859Y-57126D01*
X80859Y-57164D01*
X80850Y-57182D01*
X80831Y-57201D01*
X80794Y-57210D01*
X80728Y-57210D01*
X80690Y-57201D01*
X80672Y-57182D01*
X80662Y-57164D01*
X80662Y-57014D02*
X80662Y-56892D01*
X80737Y-56957D01*
X80737Y-56929D01*
X80747Y-56910D01*
X80756Y-56901D01*
X80775Y-56892D01*
X80822Y-56892D01*
X80840Y-56901D01*
X80850Y-56910D01*
X80859Y-56929D01*
X80859Y-56985D01*
X80850Y-57004D01*
X80840Y-57014D01*
X80376Y-57403D02*
X80179Y-57403D01*
X80179Y-57356D01*
X80189Y-57328D01*
X80207Y-57309D01*
X80226Y-57300D01*
X80264Y-57290D01*
X80292Y-57290D01*
X80329Y-57300D01*
X80348Y-57309D01*
X80367Y-57328D01*
X80376Y-57356D01*
X80376Y-57403D01*
X80179Y-57169D02*
X80179Y-57131D01*
X80189Y-57112D01*
X80207Y-57094D01*
X80245Y-57084D01*
X80311Y-57084D01*
X80348Y-57094D01*
X80367Y-57112D01*
X80376Y-57131D01*
X80376Y-57169D01*
X80367Y-57187D01*
X80348Y-57206D01*
X80311Y-57215D01*
X80245Y-57215D01*
X80207Y-57206D01*
X80189Y-57187D01*
X80179Y-57169D01*
X80198Y-57009D02*
X80189Y-57000D01*
X80179Y-56981D01*
X80179Y-56934D01*
X80189Y-56915D01*
X80198Y-56906D01*
X80217Y-56897D01*
X80236Y-56897D01*
X80264Y-56906D01*
X80376Y-57019D01*
X80376Y-56897D01*
X79839Y-57368D02*
X79642Y-57368D01*
X79642Y-57321D01*
X79652Y-57293D01*
X79670Y-57274D01*
X79689Y-57265D01*
X79727Y-57255D01*
X79755Y-57255D01*
X79792Y-57265D01*
X79811Y-57274D01*
X79830Y-57293D01*
X79839Y-57321D01*
X79839Y-57368D01*
X79642Y-57134D02*
X79642Y-57096D01*
X79652Y-57077D01*
X79670Y-57059D01*
X79708Y-57049D01*
X79774Y-57049D01*
X79811Y-57059D01*
X79830Y-57077D01*
X79839Y-57096D01*
X79839Y-57134D01*
X79830Y-57152D01*
X79811Y-57171D01*
X79774Y-57180D01*
X79708Y-57180D01*
X79670Y-57171D01*
X79652Y-57152D01*
X79642Y-57134D01*
X79839Y-56862D02*
X79839Y-56974D01*
X79839Y-56918D02*
X79642Y-56918D01*
X79670Y-56937D01*
X79689Y-56955D01*
X79699Y-56974D01*
X81349Y-53756D02*
X81152Y-53756D01*
X81152Y-53709D01*
X81162Y-53681D01*
X81180Y-53662D01*
X81199Y-53653D01*
X81237Y-53643D01*
X81265Y-53643D01*
X81302Y-53653D01*
X81321Y-53662D01*
X81340Y-53681D01*
X81349Y-53709D01*
X81349Y-53756D01*
X81349Y-53559D02*
X81152Y-53559D01*
X81218Y-53381D02*
X81349Y-53381D01*
X81143Y-53428D02*
X81284Y-53474D01*
X81284Y-53353D01*
X80873Y-53749D02*
X80676Y-53749D01*
X80676Y-53702D01*
X80686Y-53674D01*
X80704Y-53655D01*
X80723Y-53646D01*
X80761Y-53636D01*
X80789Y-53636D01*
X80826Y-53646D01*
X80845Y-53655D01*
X80864Y-53674D01*
X80873Y-53702D01*
X80873Y-53749D01*
X80873Y-53552D02*
X80676Y-53552D01*
X80676Y-53477D02*
X80676Y-53355D01*
X80751Y-53421D01*
X80751Y-53392D01*
X80761Y-53374D01*
X80770Y-53364D01*
X80789Y-53355D01*
X80836Y-53355D01*
X80854Y-53364D01*
X80864Y-53374D01*
X80873Y-53392D01*
X80873Y-53449D01*
X80864Y-53467D01*
X80854Y-53477D01*
X80341Y-53756D02*
X80144Y-53756D01*
X80144Y-53709D01*
X80154Y-53681D01*
X80172Y-53662D01*
X80191Y-53653D01*
X80229Y-53643D01*
X80257Y-53643D01*
X80294Y-53653D01*
X80313Y-53662D01*
X80332Y-53681D01*
X80341Y-53709D01*
X80341Y-53756D01*
X80341Y-53559D02*
X80144Y-53559D01*
X80163Y-53474D02*
X80154Y-53465D01*
X80144Y-53446D01*
X80144Y-53399D01*
X80154Y-53381D01*
X80163Y-53371D01*
X80182Y-53362D01*
X80201Y-53362D01*
X80229Y-53371D01*
X80341Y-53484D01*
X80341Y-53362D01*
X79858Y-53721D02*
X79661Y-53721D01*
X79661Y-53674D01*
X79671Y-53646D01*
X79689Y-53627D01*
X79708Y-53618D01*
X79746Y-53608D01*
X79774Y-53608D01*
X79811Y-53618D01*
X79830Y-53627D01*
X79849Y-53646D01*
X79858Y-53674D01*
X79858Y-53721D01*
X79858Y-53524D02*
X79661Y-53524D01*
X79858Y-53327D02*
X79858Y-53439D01*
X79858Y-53383D02*
X79661Y-53383D01*
X79689Y-53402D01*
X79708Y-53421D01*
X79718Y-53439D01*
G54D10*
X78976Y-56777D02*
X81527Y-56777D01*
X81528Y-53992D02*
X81528Y-56776D01*
X78977Y-53989D02*
X78977Y-56777D01*
X78972Y-53993D02*
X79105Y-53993D01*
X79105Y-53993D02*
X79185Y-53993D01*
X79185Y-53993D02*
X81527Y-53993D01*
M02*
