G04 (created by PCBNEW (2013-07-07 BZR 4022)-stable) date 1/20/2015 11:29:37 PM*
%MOIN*%
G04 Gerber Fmt 3.4, Leading zero omitted, Abs format*
%FSLAX34Y34*%
G01*
G70*
G90*
G04 APERTURE LIST*
%ADD10C,0.00590551*%
%ADD11C,0.055*%
%ADD12C,0.0295276*%
%ADD13C,0.16*%
%ADD14C,0.02*%
G04 APERTURE END LIST*
G54D10*
G54D11*
X76890Y-55612D03*
X76890Y-58612D03*
X79838Y-55524D03*
X79838Y-58524D03*
X82676Y-55568D03*
X82676Y-58568D03*
X88990Y-64962D03*
X88990Y-67962D03*
X80554Y-63140D03*
X82554Y-63140D03*
X71534Y-68222D03*
X73534Y-68222D03*
G54D12*
X74274Y-63100D03*
X74281Y-62600D03*
X74281Y-62100D03*
X77323Y-62085D03*
X77316Y-62585D03*
X77316Y-63085D03*
X84768Y-62528D03*
X84775Y-62028D03*
X84775Y-61528D03*
G54D13*
X90002Y-60566D03*
X77420Y-68076D03*
X76868Y-53636D03*
G54D14*
X77420Y-68076D02*
X76340Y-68076D01*
X75508Y-60270D02*
X77323Y-62085D01*
X73652Y-60270D02*
X75508Y-60270D01*
X73170Y-60752D02*
X73652Y-60270D01*
X73170Y-64906D02*
X73170Y-60752D01*
X76340Y-68076D02*
X73170Y-64906D01*
X84768Y-62528D02*
X84768Y-65397D01*
X82090Y-68076D02*
X77420Y-68076D01*
X84768Y-65397D02*
X82090Y-68076D01*
X77420Y-68076D02*
X88876Y-68076D01*
X88876Y-68076D02*
X88990Y-67962D01*
X77420Y-68076D02*
X73680Y-68076D01*
X73680Y-68076D02*
X73534Y-68222D01*
X74281Y-62600D02*
X77301Y-62600D01*
X77301Y-62600D02*
X77316Y-62585D01*
X76890Y-58612D02*
X76890Y-59476D01*
X76890Y-59476D02*
X80554Y-63140D01*
X77316Y-63085D02*
X80499Y-63085D01*
X80499Y-63085D02*
X80554Y-63140D01*
X74274Y-63100D02*
X77301Y-63100D01*
X77301Y-63100D02*
X77316Y-63085D01*
X84775Y-62028D02*
X83665Y-62028D01*
X83665Y-62028D02*
X82554Y-63140D01*
X79838Y-58524D02*
X80040Y-58524D01*
X82554Y-61038D02*
X82554Y-63140D01*
X80040Y-58524D02*
X82554Y-61038D01*
X82676Y-58568D02*
X82676Y-59429D01*
X82676Y-59429D02*
X84775Y-61528D01*
X84775Y-61528D02*
X89039Y-61528D01*
X89039Y-61528D02*
X90002Y-60566D01*
X88990Y-64962D02*
X88990Y-61578D01*
X88990Y-61578D02*
X90002Y-60566D01*
X77946Y-53636D02*
X80744Y-53636D01*
X80744Y-53636D02*
X82676Y-55568D01*
X76868Y-53636D02*
X77946Y-53636D01*
X77946Y-53636D02*
X77950Y-53636D01*
X77950Y-53636D02*
X79838Y-55524D01*
X76868Y-53636D02*
X76868Y-55590D01*
X76868Y-55590D02*
X76890Y-55612D01*
X71534Y-68222D02*
X71534Y-58970D01*
X71534Y-58970D02*
X76868Y-53636D01*
M02*
