G04 (created by PCBNEW (2013-07-07 BZR 4022)-stable) date 9/11/2014 4:32:56 PM*
%MOIN*%
G04 Gerber Fmt 3.4, Leading zero omitted, Abs format*
%FSLAX34Y34*%
G01*
G70*
G90*
G04 APERTURE LIST*
%ADD10C,0.00590551*%
%ADD11R,0.0590551X0.0354331*%
%ADD12C,0.055*%
%ADD13C,0.035*%
%ADD14C,0.01*%
G04 APERTURE END LIST*
G54D10*
G54D11*
X80623Y-57092D03*
X78812Y-57092D03*
X80623Y-55989D03*
X78812Y-55989D03*
X83455Y-57092D03*
X81644Y-57092D03*
X83455Y-55989D03*
X81644Y-55989D03*
X80623Y-59477D03*
X78812Y-59477D03*
X80623Y-58374D03*
X78812Y-58374D03*
X83443Y-59477D03*
X81632Y-59477D03*
X83443Y-58374D03*
X81632Y-58374D03*
G54D12*
X77655Y-56730D03*
X77655Y-57730D03*
X77655Y-58730D03*
X77655Y-59730D03*
X84626Y-59730D03*
X84626Y-58730D03*
X84626Y-57730D03*
X84626Y-56730D03*
X84626Y-55601D03*
X77660Y-55601D03*
G54D13*
X80645Y-56365D03*
X81550Y-56705D03*
X80635Y-58825D03*
X82510Y-55935D03*
X79410Y-55995D03*
X79395Y-57780D03*
X82125Y-58140D03*
X82515Y-56835D03*
G54D14*
X78812Y-57092D02*
X78292Y-57092D01*
X78292Y-57092D02*
X77655Y-57730D01*
X80623Y-56343D02*
X80645Y-56365D01*
X80623Y-55989D02*
X80623Y-56343D01*
X78812Y-59477D02*
X78402Y-59477D01*
X78402Y-59477D02*
X77655Y-58730D01*
X81632Y-59477D02*
X81627Y-59477D01*
X77835Y-59730D02*
X77655Y-59730D01*
X78030Y-59925D02*
X77835Y-59730D01*
X81180Y-59925D02*
X78030Y-59925D01*
X81627Y-59477D02*
X81180Y-59925D01*
X81644Y-57092D02*
X81644Y-56799D01*
X81644Y-56799D02*
X81550Y-56705D01*
X80070Y-57750D02*
X79995Y-57750D01*
X77899Y-55601D02*
X77660Y-55601D01*
X78015Y-55485D02*
X77899Y-55601D01*
X79695Y-55485D02*
X78015Y-55485D01*
X79740Y-55530D02*
X79695Y-55485D01*
X79740Y-57495D02*
X79740Y-55530D01*
X79995Y-57750D02*
X79740Y-57495D01*
X80623Y-59477D02*
X80623Y-59428D01*
X80040Y-57750D02*
X80070Y-57750D01*
X80070Y-57750D02*
X81225Y-57750D01*
X79950Y-57840D02*
X80040Y-57750D01*
X79950Y-58755D02*
X79950Y-57840D01*
X80623Y-59428D02*
X79950Y-58755D01*
X80623Y-57092D02*
X80623Y-57148D01*
X81225Y-57750D02*
X82560Y-57750D01*
X80623Y-57148D02*
X81225Y-57750D01*
X82560Y-57750D02*
X82797Y-57750D01*
X82637Y-59477D02*
X82560Y-59400D01*
X82560Y-59400D02*
X82560Y-57750D01*
X83443Y-59477D02*
X82637Y-59477D01*
X82797Y-57750D02*
X83455Y-57092D01*
X83455Y-55989D02*
X83455Y-56035D01*
X84475Y-57730D02*
X84626Y-57730D01*
X84040Y-57295D02*
X84475Y-57730D01*
X84040Y-56620D02*
X84040Y-57295D01*
X83455Y-56035D02*
X84040Y-56620D01*
X83443Y-58374D02*
X84271Y-58374D01*
X84271Y-58374D02*
X84626Y-58730D01*
X80623Y-58374D02*
X80623Y-58751D01*
X80640Y-58820D02*
X80635Y-58825D01*
X80640Y-58767D02*
X80640Y-58820D01*
X80623Y-58751D02*
X80640Y-58767D01*
X78812Y-55989D02*
X79374Y-55989D01*
X82510Y-55935D02*
X82515Y-55935D01*
X79380Y-55995D02*
X79410Y-55995D01*
X79374Y-55989D02*
X79380Y-55995D01*
X78812Y-58362D02*
X79395Y-57780D01*
X78812Y-58374D02*
X78812Y-58362D01*
X82515Y-55935D02*
X81699Y-55935D01*
X81920Y-58374D02*
X82125Y-58170D01*
X82125Y-58170D02*
X82125Y-58140D01*
X82515Y-56835D02*
X82515Y-55935D01*
X81632Y-58374D02*
X81920Y-58374D01*
X81699Y-55935D02*
X81644Y-55989D01*
M02*
