G04 #@! TF.FileFunction,Copper,L2,Bot,Signal*
%FSLAX46Y46*%
G04 Gerber Fmt 4.6, Leading zero omitted, Abs format (unit mm)*
G04 Created by KiCad (PCBNEW (2015-08-28 BZR 6132, Git 156d5f5)-product) date 8/29/2015 11:04:07 PM*
%MOMM*%
G01*
G04 APERTURE LIST*
%ADD10C,0.100000*%
%ADD11R,1.600000X2.000000*%
%ADD12R,2.032000X1.727200*%
%ADD13O,2.032000X1.727200*%
%ADD14C,0.600000*%
%ADD15C,0.250000*%
G04 APERTURE END LIST*
D10*
D11*
X147955000Y-109950000D03*
X147955000Y-105950000D03*
D12*
X138430000Y-102870000D03*
D13*
X138430000Y-105410000D03*
X138430000Y-107950000D03*
X138430000Y-110490000D03*
X138430000Y-113030000D03*
D12*
X157480000Y-102870000D03*
D13*
X157480000Y-105410000D03*
X157480000Y-107950000D03*
X157480000Y-110490000D03*
X157480000Y-113030000D03*
D14*
X148190000Y-108430000D03*
X147420000Y-113200000D03*
X152260000Y-113060000D03*
X141940000Y-109180000D03*
X149840000Y-108960000D03*
X142930000Y-102780000D03*
X147910000Y-102920000D03*
X143780000Y-103880000D03*
X146140000Y-104420000D03*
X149820000Y-104360000D03*
X151810000Y-102860000D03*
X151400000Y-110130000D03*
X149470000Y-112040000D03*
X146120000Y-111980000D03*
X142990000Y-111640000D03*
X143780000Y-110220000D03*
X151470000Y-111410000D03*
D15*
X147955000Y-109950000D02*
X147955000Y-108665000D01*
X147955000Y-108665000D02*
X148190000Y-108430000D01*
X147955000Y-112665000D02*
X147955000Y-109950000D01*
X147420000Y-113200000D02*
X147955000Y-112665000D01*
X152120000Y-113200000D02*
X147420000Y-113200000D01*
X152260000Y-113060000D02*
X152120000Y-113200000D01*
X147955000Y-105950000D02*
X147955000Y-107485000D01*
X142370000Y-108750000D02*
X141940000Y-109180000D01*
X146690000Y-108750000D02*
X142370000Y-108750000D01*
X147955000Y-107485000D02*
X146690000Y-108750000D01*
X147955000Y-105950000D02*
X147955000Y-107015000D01*
X149840000Y-108900000D02*
X149840000Y-108960000D01*
X147955000Y-107015000D02*
X149840000Y-108900000D01*
X147910000Y-102920000D02*
X143090000Y-102920000D01*
X142950000Y-102780000D02*
X142930000Y-102780000D01*
X143090000Y-102920000D02*
X142950000Y-102780000D01*
X147955000Y-105950000D02*
X147955000Y-102965000D01*
X147955000Y-102965000D02*
X147910000Y-102920000D01*
X139520000Y-103960000D02*
X138430000Y-102870000D01*
X143700000Y-103960000D02*
X139520000Y-103960000D01*
X143780000Y-103880000D02*
X143700000Y-103960000D01*
X139130000Y-104710000D02*
X138430000Y-105410000D01*
X145850000Y-104710000D02*
X139130000Y-104710000D01*
X146140000Y-104420000D02*
X145850000Y-104710000D01*
X150550000Y-103630000D02*
X149820000Y-104360000D01*
X151040000Y-103630000D02*
X150550000Y-103630000D01*
X151810000Y-102860000D02*
X151040000Y-103630000D01*
X151400000Y-110130000D02*
X149490000Y-112040000D01*
X149490000Y-112040000D02*
X149470000Y-112040000D01*
X146120000Y-111980000D02*
X145920000Y-111780000D01*
X145920000Y-111780000D02*
X143130000Y-111780000D01*
X143130000Y-111780000D02*
X142990000Y-111640000D01*
X143510000Y-110490000D02*
X138430000Y-110490000D01*
X143780000Y-110220000D02*
X143510000Y-110490000D01*
X156300000Y-111410000D02*
X157220000Y-110490000D01*
X151470000Y-111410000D02*
X156300000Y-111410000D01*
X157220000Y-110490000D02*
X157480000Y-110490000D01*
M02*
