M48
;DRILL file {KiCad 4.0.1-stable} date 11/5/2016 5:27:27 PM
;FORMAT={-:-/ absolute / inch / decimal}
FMAT,2
INCH,TZ
T1C0.016
T2C0.040
%
G90
G05
M72
T1
X5.5Y-4.33
X5.51Y-4.25
X5.54Y-4.24
X5.5726Y-3.97
X5.5726Y-4.28
X5.6Y-4.21
X5.6Y-4.34
X5.62Y-3.86
X5.63Y-4.16
X5.7Y-4.13
X5.7Y-4.24
X5.76Y-4.24
X5.77Y-4.13
X5.8126Y-3.97
X5.8126Y-4.28
X5.83Y-4.38
X5.84Y-3.9
X5.86Y-3.85
X5.87Y-4.18
X5.92Y-4.13
X5.96Y-3.98
X5.96Y-4.13
X5.96Y-4.24
T2
X5.41Y-3.95
X5.41Y-4.05
X5.41Y-4.15
X5.41Y-4.25
X5.41Y-4.35
X6.06Y-3.95
X6.06Y-4.05
X6.06Y-4.15
X6.06Y-4.25
X6.06Y-4.35
T0
M30
