G04 #@! TF.FileFunction,Copper,L1,Top,Signal*
%FSLAX46Y46*%
G04 Gerber Fmt 4.6, Leading zero omitted, Abs format (unit mm)*
G04 Created by KiCad (PCBNEW 4.0.1-stable) date 11/5/2016 5:28:01 PM*
%MOMM*%
G01*
G04 APERTURE LIST*
%ADD10C,0.100000*%
%ADD11R,1.000000X1.600000*%
%ADD12R,2.032000X1.727200*%
%ADD13O,2.032000X1.727200*%
%ADD14C,0.600000*%
%ADD15C,0.250000*%
G04 APERTURE END LIST*
D10*
D11*
X150190000Y-98338000D03*
X146990000Y-98338000D03*
X150190000Y-103338000D03*
X146990000Y-103338000D03*
X144094000Y-98338000D03*
X140894000Y-98338000D03*
X144094000Y-103338000D03*
X140894000Y-103338000D03*
X144094000Y-106212000D03*
X140894000Y-106212000D03*
X144094000Y-111212000D03*
X140894000Y-111212000D03*
X150190000Y-106212000D03*
X146990000Y-106212000D03*
X150190000Y-111212000D03*
X146990000Y-111212000D03*
D12*
X137414000Y-100330000D03*
X137414000Y-102870000D03*
D13*
X137414000Y-105410000D03*
X137414000Y-107950000D03*
X137414000Y-110490000D03*
D12*
X153924000Y-100330000D03*
X153924000Y-102870000D03*
D13*
X153924000Y-105410000D03*
X153924000Y-107950000D03*
X153924000Y-110490000D03*
D14*
X141544000Y-108712000D03*
X147640000Y-108712000D03*
X147640000Y-100838000D03*
X141544000Y-100838000D03*
X149098000Y-106172000D03*
X143002000Y-105664000D03*
X148844000Y-97790000D03*
X142748000Y-98044000D03*
X144780000Y-107696000D03*
X146304000Y-107696000D03*
X151384000Y-107696000D03*
X139700000Y-109982000D03*
X142240000Y-110236000D03*
X151384000Y-104902000D03*
X151384000Y-101092000D03*
X148336000Y-99060000D03*
X139954000Y-107950000D03*
X140716000Y-107696000D03*
X142240000Y-106934000D03*
X144780000Y-104902000D03*
X146558000Y-104902000D03*
X150368000Y-104902000D03*
X148082000Y-111252000D03*
D15*
X137414000Y-100330000D02*
X140208000Y-100330000D01*
X140208000Y-100330000D02*
X141130000Y-101252000D01*
X137414000Y-100330000D02*
X139736000Y-100330000D01*
X139736000Y-100330000D02*
X140894000Y-101488000D01*
X145542000Y-109362000D02*
X145542000Y-101488000D01*
X145542000Y-101488000D02*
X145542000Y-101600000D01*
X145542000Y-101600000D02*
X145542000Y-101488000D01*
X146990000Y-109362000D02*
X145542000Y-109362000D01*
X145542000Y-109362000D02*
X140894000Y-109362000D01*
X140894000Y-109362000D02*
X140970000Y-109438000D01*
X140970000Y-109474000D02*
X140894000Y-109474000D01*
X140970000Y-109438000D02*
X140970000Y-109474000D01*
X140894000Y-101488000D02*
X145542000Y-101488000D01*
X145542000Y-101488000D02*
X146990000Y-101488000D01*
X146990000Y-101488000D02*
X147066000Y-101564000D01*
X147066000Y-101600000D02*
X146990000Y-101600000D01*
X147066000Y-101564000D02*
X147066000Y-101600000D01*
X140894000Y-109362000D02*
X141544000Y-108712000D01*
X140894000Y-111212000D02*
X140894000Y-109474000D01*
X140894000Y-109474000D02*
X140894000Y-109362000D01*
X146990000Y-109362000D02*
X146990000Y-109362000D01*
X146990000Y-109362000D02*
X147640000Y-108712000D01*
X146990000Y-111212000D02*
X146990000Y-109362000D01*
X146990000Y-101488000D02*
X147640000Y-100838000D01*
X146990000Y-103338000D02*
X146990000Y-101600000D01*
X146990000Y-101600000D02*
X146990000Y-101488000D01*
X141130000Y-101252000D02*
X141544000Y-100838000D01*
X140894000Y-101488000D02*
X141130000Y-101252000D01*
X140894000Y-103338000D02*
X140894000Y-101488000D01*
X150190000Y-106212000D02*
X149138000Y-106212000D01*
X149138000Y-106212000D02*
X149098000Y-106172000D01*
X144094000Y-106212000D02*
X143550000Y-106212000D01*
X143550000Y-106212000D02*
X143002000Y-105664000D01*
X150190000Y-98338000D02*
X149392000Y-98338000D01*
X149392000Y-98338000D02*
X148844000Y-97790000D01*
X144094000Y-98338000D02*
X143042000Y-98338000D01*
X143042000Y-98338000D02*
X142748000Y-98044000D01*
X140894000Y-98338000D02*
X140894000Y-98730000D01*
X140894000Y-98730000D02*
X141986000Y-99822000D01*
X141986000Y-99822000D02*
X151130000Y-99822000D01*
X151130000Y-99822000D02*
X152146000Y-100838000D01*
X152146000Y-100838000D02*
X152146000Y-108712000D01*
X152146000Y-108712000D02*
X153924000Y-110490000D01*
X144094000Y-103338000D02*
X143042000Y-103338000D01*
X139954000Y-104648000D02*
X138176000Y-102870000D01*
X141732000Y-104648000D02*
X139954000Y-104648000D01*
X143042000Y-103338000D02*
X141732000Y-104648000D01*
X138176000Y-102870000D02*
X137414000Y-102870000D01*
X140894000Y-106212000D02*
X140894000Y-106858000D01*
X140894000Y-106858000D02*
X141732000Y-107696000D01*
X141732000Y-107696000D02*
X144780000Y-107696000D01*
X146304000Y-107696000D02*
X151384000Y-107696000D01*
X144094000Y-111212000D02*
X143216000Y-111212000D01*
X139192000Y-107188000D02*
X137414000Y-105410000D01*
X139192000Y-109474000D02*
X139192000Y-107188000D01*
X139700000Y-109982000D02*
X139192000Y-109474000D01*
X143216000Y-111212000D02*
X142240000Y-110236000D01*
X137414000Y-105664000D02*
X137414000Y-105410000D01*
X146990000Y-98338000D02*
X147614000Y-98338000D01*
X151384000Y-101092000D02*
X151384000Y-104902000D01*
X147614000Y-98338000D02*
X148336000Y-99060000D01*
X150190000Y-103338000D02*
X149138000Y-103338000D01*
X140462000Y-107950000D02*
X139954000Y-107950000D01*
X140716000Y-107696000D02*
X140462000Y-107950000D01*
X142240000Y-104902000D02*
X142240000Y-106934000D01*
X144780000Y-104902000D02*
X142240000Y-104902000D01*
X147574000Y-104902000D02*
X146558000Y-104902000D01*
X149138000Y-103338000D02*
X147574000Y-104902000D01*
X146990000Y-106212000D02*
X147026000Y-106212000D01*
X147026000Y-106212000D02*
X148336000Y-104902000D01*
X148336000Y-104902000D02*
X150368000Y-104902000D01*
X150190000Y-111212000D02*
X148122000Y-111212000D01*
X148122000Y-111212000D02*
X148082000Y-111252000D01*
X137922000Y-110490000D02*
X137414000Y-110490000D01*
M02*
