G04 #@! TF.FileFunction,Copper,L1,Top,Signal*
%FSLAX46Y46*%
G04 Gerber Fmt 4.6, Leading zero omitted, Abs format (unit mm)*
G04 Created by KiCad (PCBNEW (2015-08-28 BZR 6132, Git 156d5f5)-product) date 9/27/2015 8:45:32 PM*
%MOMM*%
G01*
G04 APERTURE LIST*
%ADD10C,0.100000*%
%ADD11R,1.750000X0.900000*%
%ADD12R,2.032000X1.727200*%
%ADD13O,2.032000X1.727200*%
%ADD14C,0.600000*%
%ADD15C,0.250000*%
G04 APERTURE END LIST*
D10*
D11*
X145843020Y-105504440D03*
X141220000Y-105504440D03*
X145843020Y-102704440D03*
X141243020Y-102704440D03*
X154098020Y-105504440D03*
X149475000Y-105504440D03*
X154098020Y-102704440D03*
X149498020Y-102704440D03*
X145843020Y-113124440D03*
X141220000Y-113124440D03*
X145843020Y-110324440D03*
X141243020Y-110324440D03*
X154098020Y-113124440D03*
X149475000Y-113124440D03*
X154098020Y-110324440D03*
X149498020Y-110324440D03*
D12*
X138430000Y-102870000D03*
D13*
X138430000Y-105410000D03*
X138430000Y-107950000D03*
X138430000Y-110490000D03*
X138430000Y-113030000D03*
D12*
X157480000Y-102870000D03*
D13*
X157480000Y-105410000D03*
X157480000Y-107950000D03*
X157480000Y-110490000D03*
X157480000Y-113030000D03*
D14*
X148190000Y-108430000D03*
X147420000Y-113200000D03*
X152260000Y-113060000D03*
X141940000Y-109180000D03*
X149840000Y-108960000D03*
X142930000Y-102780000D03*
X147910000Y-102920000D03*
X143780000Y-103880000D03*
X146140000Y-104420000D03*
X149820000Y-104360000D03*
X151810000Y-102860000D03*
X151400000Y-110130000D03*
X149470000Y-112040000D03*
X146120000Y-111980000D03*
X142990000Y-111640000D03*
X143780000Y-110220000D03*
X151470000Y-111410000D03*
D15*
X148190000Y-108430000D02*
X147630000Y-108430000D01*
X145843020Y-106643020D02*
X145843020Y-105504440D01*
X147630000Y-108430000D02*
X145843020Y-106643020D01*
X152592460Y-107010000D02*
X154098020Y-105504440D01*
X149610000Y-107010000D02*
X152592460Y-107010000D01*
X148190000Y-108430000D02*
X149610000Y-107010000D01*
X145843020Y-113124440D02*
X147344440Y-113124440D01*
X147344440Y-113124440D02*
X147420000Y-113200000D01*
X154098020Y-113124440D02*
X152324440Y-113124440D01*
X152324440Y-113124440D02*
X152260000Y-113060000D01*
X157480000Y-113030000D02*
X154192460Y-113030000D01*
X154192460Y-113030000D02*
X154098020Y-113124440D01*
X145843020Y-105838020D02*
X145843020Y-105504440D01*
X138430000Y-113030000D02*
X138537460Y-113030000D01*
X138537460Y-113030000D02*
X141243020Y-110324440D01*
X141940000Y-109180000D02*
X141243020Y-109876980D01*
X141243020Y-109876980D02*
X141243020Y-110324440D01*
X149498020Y-109301980D02*
X149498020Y-110324440D01*
X149840000Y-108960000D02*
X149498020Y-109301980D01*
X142854440Y-102704440D02*
X141243020Y-102704440D01*
X142930000Y-102780000D02*
X142854440Y-102704440D01*
X148125560Y-102704440D02*
X149498020Y-102704440D01*
X147910000Y-102920000D02*
X148125560Y-102704440D01*
X149498020Y-102721980D02*
X149498020Y-102704440D01*
X140500560Y-110324440D02*
X141243020Y-110324440D01*
X145843020Y-102704440D02*
X144955560Y-102704440D01*
X144955560Y-102704440D02*
X143780000Y-103880000D01*
X145843020Y-102704440D02*
X145453560Y-102704440D01*
X154098020Y-102704440D02*
X152045560Y-102704440D01*
X149760000Y-104420000D02*
X146140000Y-104420000D01*
X149820000Y-104360000D02*
X149760000Y-104420000D01*
X151890000Y-102860000D02*
X151810000Y-102860000D01*
X152045560Y-102704440D02*
X151890000Y-102860000D01*
X138600000Y-107780000D02*
X142870000Y-107780000D01*
X151744440Y-110324440D02*
X151550000Y-110130000D01*
X151550000Y-110130000D02*
X151400000Y-110130000D01*
X149470000Y-112040000D02*
X149410000Y-111980000D01*
X149410000Y-111980000D02*
X146120000Y-111980000D01*
X142990000Y-111640000D02*
X143130000Y-111500000D01*
X143130000Y-111500000D02*
X143130000Y-108040000D01*
X143130000Y-108040000D02*
X142870000Y-107780000D01*
X151744440Y-110324440D02*
X154098020Y-110324440D01*
X138600000Y-107780000D02*
X138430000Y-107950000D01*
X145843020Y-110324440D02*
X143884440Y-110324440D01*
X143884440Y-110324440D02*
X143780000Y-110220000D01*
X145843020Y-110324440D02*
X145503440Y-110324440D01*
X141220000Y-105504440D02*
X143295560Y-105504440D01*
X145070000Y-103730000D02*
X156620000Y-103730000D01*
X143295560Y-105504440D02*
X145070000Y-103730000D01*
X156620000Y-103730000D02*
X157480000Y-102870000D01*
X149475000Y-105504440D02*
X151415560Y-105504440D01*
X156430000Y-104360000D02*
X157480000Y-105410000D01*
X152560000Y-104360000D02*
X156430000Y-104360000D01*
X151415560Y-105504440D02*
X152560000Y-104360000D01*
X149475000Y-113124440D02*
X151155560Y-113124440D01*
X155530000Y-109900000D02*
X157480000Y-107950000D01*
X155530000Y-111470000D02*
X155530000Y-109900000D01*
X155080000Y-111920000D02*
X155530000Y-111470000D01*
X152360000Y-111920000D02*
X155080000Y-111920000D01*
X151155560Y-113124440D02*
X152360000Y-111920000D01*
X141220000Y-113124440D02*
X143775560Y-113124440D01*
X151410000Y-111350000D02*
X151470000Y-111410000D01*
X145070000Y-111350000D02*
X151410000Y-111350000D01*
X144350000Y-112070000D02*
X145070000Y-111350000D01*
X144350000Y-112550000D02*
X144350000Y-112070000D01*
X143775560Y-113124440D02*
X144350000Y-112550000D01*
M02*
