G04 #@! TF.FileFunction,Legend,Top*
%FSLAX46Y46*%
G04 Gerber Fmt 4.6, Leading zero omitted, Abs format (unit mm)*
G04 Created by KiCad (PCBNEW 4.0.1-stable) date 11/5/2016 5:28:01 PM*
%MOMM*%
G01*
G04 APERTURE LIST*
%ADD10C,0.100000*%
%ADD11C,0.150000*%
G04 APERTURE END LIST*
D10*
D11*
X145990000Y-104338000D02*
X145990000Y-97338000D01*
X151190000Y-104338000D02*
X151190000Y-97338000D01*
X151190000Y-97338000D02*
X150190000Y-97338000D01*
X139894000Y-104338000D02*
X139894000Y-97338000D01*
X145094000Y-104338000D02*
X145094000Y-97338000D01*
X145094000Y-97338000D02*
X144094000Y-97338000D01*
X139894000Y-112212000D02*
X139894000Y-105212000D01*
X145094000Y-112212000D02*
X145094000Y-105212000D01*
X145094000Y-105212000D02*
X144094000Y-105212000D01*
X145990000Y-112212000D02*
X145990000Y-105212000D01*
X151190000Y-112212000D02*
X151190000Y-105212000D01*
X151190000Y-105212000D02*
X150190000Y-105212000D01*
X138964000Y-98780000D02*
X138964000Y-100330000D01*
X135864000Y-100330000D02*
X135864000Y-98780000D01*
X135864000Y-98780000D02*
X138964000Y-98780000D01*
X136144000Y-101600000D02*
X138684000Y-101600000D01*
X136144000Y-104140000D02*
X136144000Y-111760000D01*
X138684000Y-104140000D02*
X138684000Y-111760000D01*
X138964000Y-101320000D02*
X138964000Y-102870000D01*
X136144000Y-111760000D02*
X138684000Y-111760000D01*
X138684000Y-104140000D02*
X136144000Y-104140000D01*
X135864000Y-102870000D02*
X135864000Y-101320000D01*
X135864000Y-101320000D02*
X138964000Y-101320000D01*
X155474000Y-98780000D02*
X155474000Y-100330000D01*
X152374000Y-100330000D02*
X152374000Y-98780000D01*
X152374000Y-98780000D02*
X155474000Y-98780000D01*
X152654000Y-101600000D02*
X155194000Y-101600000D01*
X152654000Y-104140000D02*
X152654000Y-111760000D01*
X155194000Y-104140000D02*
X155194000Y-111760000D01*
X155474000Y-101320000D02*
X155474000Y-102870000D01*
X152654000Y-111760000D02*
X155194000Y-111760000D01*
X155194000Y-104140000D02*
X152654000Y-104140000D01*
X152374000Y-102870000D02*
X152374000Y-101320000D01*
X152374000Y-101320000D02*
X155474000Y-101320000D01*
X145542381Y-101576095D02*
X144542381Y-101576095D01*
X144542381Y-101338000D01*
X144590000Y-101195142D01*
X144685238Y-101099904D01*
X144780476Y-101052285D01*
X144970952Y-101004666D01*
X145113810Y-101004666D01*
X145304286Y-101052285D01*
X145399524Y-101099904D01*
X145494762Y-101195142D01*
X145542381Y-101338000D01*
X145542381Y-101576095D01*
X144542381Y-100671333D02*
X144542381Y-100052285D01*
X144923333Y-100385619D01*
X144923333Y-100242761D01*
X144970952Y-100147523D01*
X145018571Y-100099904D01*
X145113810Y-100052285D01*
X145351905Y-100052285D01*
X145447143Y-100099904D01*
X145494762Y-100147523D01*
X145542381Y-100242761D01*
X145542381Y-100528476D01*
X145494762Y-100623714D01*
X145447143Y-100671333D01*
X139446381Y-101576095D02*
X138446381Y-101576095D01*
X138446381Y-101338000D01*
X138494000Y-101195142D01*
X138589238Y-101099904D01*
X138684476Y-101052285D01*
X138874952Y-101004666D01*
X139017810Y-101004666D01*
X139208286Y-101052285D01*
X139303524Y-101099904D01*
X139398762Y-101195142D01*
X139446381Y-101338000D01*
X139446381Y-101576095D01*
X139446381Y-100052285D02*
X139446381Y-100623714D01*
X139446381Y-100338000D02*
X138446381Y-100338000D01*
X138589238Y-100433238D01*
X138684476Y-100528476D01*
X138732095Y-100623714D01*
X139446381Y-109450095D02*
X138446381Y-109450095D01*
X138446381Y-109212000D01*
X138494000Y-109069142D01*
X138589238Y-108973904D01*
X138684476Y-108926285D01*
X138874952Y-108878666D01*
X139017810Y-108878666D01*
X139208286Y-108926285D01*
X139303524Y-108973904D01*
X139398762Y-109069142D01*
X139446381Y-109212000D01*
X139446381Y-109450095D01*
X138541619Y-108497714D02*
X138494000Y-108450095D01*
X138446381Y-108354857D01*
X138446381Y-108116761D01*
X138494000Y-108021523D01*
X138541619Y-107973904D01*
X138636857Y-107926285D01*
X138732095Y-107926285D01*
X138874952Y-107973904D01*
X139446381Y-108545333D01*
X139446381Y-107926285D01*
X145542381Y-109450095D02*
X144542381Y-109450095D01*
X144542381Y-109212000D01*
X144590000Y-109069142D01*
X144685238Y-108973904D01*
X144780476Y-108926285D01*
X144970952Y-108878666D01*
X145113810Y-108878666D01*
X145304286Y-108926285D01*
X145399524Y-108973904D01*
X145494762Y-109069142D01*
X145542381Y-109212000D01*
X145542381Y-109450095D01*
X144875714Y-108021523D02*
X145542381Y-108021523D01*
X144494762Y-108259619D02*
X145209048Y-108497714D01*
X145209048Y-107878666D01*
M02*
