G04 #@! TF.FileFunction,Legend,Top*
%FSLAX46Y46*%
G04 Gerber Fmt 4.6, Leading zero omitted, Abs format (unit mm)*
G04 Created by KiCad (PCBNEW (2015-08-28 BZR 6132, Git 156d5f5)-product) date 8/29/2015 11:04:07 PM*
%MOMM*%
G01*
G04 APERTURE LIST*
%ADD10C,0.100000*%
%ADD11C,0.150000*%
%ADD12C,0.040640*%
G04 APERTURE END LIST*
D10*
D11*
X146043020Y-101604440D02*
X141043020Y-101604440D01*
X141043020Y-101604440D02*
X141043020Y-106604440D01*
X141043020Y-106604440D02*
X146043020Y-106604440D01*
X146043020Y-106604440D02*
X146043020Y-101604440D01*
X154298020Y-101604440D02*
X149298020Y-101604440D01*
X149298020Y-101604440D02*
X149298020Y-106604440D01*
X149298020Y-106604440D02*
X154298020Y-106604440D01*
X154298020Y-106604440D02*
X154298020Y-101604440D01*
X146043020Y-109224440D02*
X141043020Y-109224440D01*
X141043020Y-109224440D02*
X141043020Y-114224440D01*
X141043020Y-114224440D02*
X146043020Y-114224440D01*
X146043020Y-114224440D02*
X146043020Y-109224440D01*
X154298020Y-109224440D02*
X149298020Y-109224440D01*
X149298020Y-109224440D02*
X149298020Y-114224440D01*
X149298020Y-114224440D02*
X154298020Y-114224440D01*
X154298020Y-114224440D02*
X154298020Y-109224440D01*
X136880000Y-102870000D02*
X136880000Y-101320000D01*
X136880000Y-101320000D02*
X139980000Y-101320000D01*
X139980000Y-101320000D02*
X139980000Y-102870000D01*
X139700000Y-104140000D02*
X139700000Y-114300000D01*
X139700000Y-114300000D02*
X137160000Y-114300000D01*
X137160000Y-114300000D02*
X137160000Y-104140000D01*
X139700000Y-104140000D02*
X137160000Y-104140000D01*
X155930000Y-102870000D02*
X155930000Y-101320000D01*
X155930000Y-101320000D02*
X159030000Y-101320000D01*
X159030000Y-101320000D02*
X159030000Y-102870000D01*
X158750000Y-104140000D02*
X158750000Y-114300000D01*
X158750000Y-114300000D02*
X156210000Y-114300000D01*
X156210000Y-114300000D02*
X156210000Y-104140000D01*
X158750000Y-104140000D02*
X156210000Y-104140000D01*
D12*
X140745452Y-103913275D02*
X140649899Y-103913275D01*
X140649899Y-103712615D01*
X140812338Y-103808167D02*
X140879225Y-103808167D01*
X140907891Y-103913275D02*
X140812338Y-103913275D01*
X140812338Y-103712615D01*
X140907891Y-103712615D01*
X140993888Y-103913275D02*
X140993888Y-103712615D01*
X141041664Y-103712615D01*
X141070330Y-103722170D01*
X141089441Y-103741280D01*
X141098996Y-103760391D01*
X141108551Y-103798612D01*
X141108551Y-103827278D01*
X141098996Y-103865499D01*
X141089441Y-103884609D01*
X141070330Y-103903720D01*
X141041664Y-103913275D01*
X140993888Y-103913275D01*
X141299656Y-103913275D02*
X141184993Y-103913275D01*
X141242324Y-103913275D02*
X141242324Y-103712615D01*
X141223214Y-103741280D01*
X141204103Y-103760391D01*
X141184993Y-103769946D01*
X149000452Y-103913275D02*
X148904899Y-103913275D01*
X148904899Y-103712615D01*
X149067338Y-103808167D02*
X149134225Y-103808167D01*
X149162891Y-103913275D02*
X149067338Y-103913275D01*
X149067338Y-103712615D01*
X149162891Y-103712615D01*
X149248888Y-103913275D02*
X149248888Y-103712615D01*
X149296664Y-103712615D01*
X149325330Y-103722170D01*
X149344441Y-103741280D01*
X149353996Y-103760391D01*
X149363551Y-103798612D01*
X149363551Y-103827278D01*
X149353996Y-103865499D01*
X149344441Y-103884609D01*
X149325330Y-103903720D01*
X149296664Y-103913275D01*
X149248888Y-103913275D01*
X149439993Y-103731725D02*
X149449548Y-103722170D01*
X149468659Y-103712615D01*
X149516435Y-103712615D01*
X149535545Y-103722170D01*
X149545101Y-103731725D01*
X149554656Y-103750836D01*
X149554656Y-103769946D01*
X149545101Y-103798612D01*
X149430438Y-103913275D01*
X149554656Y-103913275D01*
X140745452Y-111533275D02*
X140649899Y-111533275D01*
X140649899Y-111332615D01*
X140812338Y-111428167D02*
X140879225Y-111428167D01*
X140907891Y-111533275D02*
X140812338Y-111533275D01*
X140812338Y-111332615D01*
X140907891Y-111332615D01*
X140993888Y-111533275D02*
X140993888Y-111332615D01*
X141041664Y-111332615D01*
X141070330Y-111342170D01*
X141089441Y-111361280D01*
X141098996Y-111380391D01*
X141108551Y-111418612D01*
X141108551Y-111447278D01*
X141098996Y-111485499D01*
X141089441Y-111504609D01*
X141070330Y-111523720D01*
X141041664Y-111533275D01*
X140993888Y-111533275D01*
X141175438Y-111332615D02*
X141299656Y-111332615D01*
X141232769Y-111409057D01*
X141261435Y-111409057D01*
X141280545Y-111418612D01*
X141290101Y-111428167D01*
X141299656Y-111447278D01*
X141299656Y-111495054D01*
X141290101Y-111514164D01*
X141280545Y-111523720D01*
X141261435Y-111533275D01*
X141204103Y-111533275D01*
X141184993Y-111523720D01*
X141175438Y-111514164D01*
X149000452Y-111533275D02*
X148904899Y-111533275D01*
X148904899Y-111332615D01*
X149067338Y-111428167D02*
X149134225Y-111428167D01*
X149162891Y-111533275D02*
X149067338Y-111533275D01*
X149067338Y-111332615D01*
X149162891Y-111332615D01*
X149248888Y-111533275D02*
X149248888Y-111332615D01*
X149296664Y-111332615D01*
X149325330Y-111342170D01*
X149344441Y-111361280D01*
X149353996Y-111380391D01*
X149363551Y-111418612D01*
X149363551Y-111447278D01*
X149353996Y-111485499D01*
X149344441Y-111504609D01*
X149325330Y-111523720D01*
X149296664Y-111533275D01*
X149248888Y-111533275D01*
X149535545Y-111399501D02*
X149535545Y-111533275D01*
X149487769Y-111323060D02*
X149439993Y-111466388D01*
X149564211Y-111466388D01*
D11*
X137691905Y-98222381D02*
X137691905Y-97222381D01*
X138072858Y-97222381D01*
X138168096Y-97270000D01*
X138215715Y-97317619D01*
X138263334Y-97412857D01*
X138263334Y-97555714D01*
X138215715Y-97650952D01*
X138168096Y-97698571D01*
X138072858Y-97746190D01*
X137691905Y-97746190D01*
X139215715Y-98222381D02*
X138644286Y-98222381D01*
X138930000Y-98222381D02*
X138930000Y-97222381D01*
X138834762Y-97365238D01*
X138739524Y-97460476D01*
X138644286Y-97508095D01*
X156741905Y-98222381D02*
X156741905Y-97222381D01*
X157122858Y-97222381D01*
X157218096Y-97270000D01*
X157265715Y-97317619D01*
X157313334Y-97412857D01*
X157313334Y-97555714D01*
X157265715Y-97650952D01*
X157218096Y-97698571D01*
X157122858Y-97746190D01*
X156741905Y-97746190D01*
X157694286Y-97317619D02*
X157741905Y-97270000D01*
X157837143Y-97222381D01*
X158075239Y-97222381D01*
X158170477Y-97270000D01*
X158218096Y-97317619D01*
X158265715Y-97412857D01*
X158265715Y-97508095D01*
X158218096Y-97650952D01*
X157646667Y-98222381D01*
X158265715Y-98222381D01*
M02*
