M48
;DRILL file {KiCad (2015-08-28 BZR 6132, Git 156d5f5)-product} date 8/29/2015 11:04:00 PM
;FORMAT={-:-/ absolute / inch / decimal}
FMAT,2
INCH,TZ
T1C0.016
T2C0.040
%
G90
G05
M72
T1
X5.5882Y-4.2984
X5.6272Y-4.0465
X5.6295Y-4.3953
X5.6606Y-4.0898
X5.6606Y-4.3394
X5.7528Y-4.4087
X5.7535Y-4.111
X5.8039Y-4.4567
X5.8232Y-4.052
X5.8343Y-4.2689
X5.8846Y-4.411
X5.8984Y-4.1087
X5.8992Y-4.2898
X5.9606Y-4.3358
X5.9634Y-4.3862
X5.9768Y-4.0496
X5.9945Y-4.4512
T2
X5.45Y-4.05
X5.45Y-4.15
X5.45Y-4.25
X5.45Y-4.35
X5.45Y-4.45
X6.2Y-4.05
X6.2Y-4.15
X6.2Y-4.25
X6.2Y-4.35
X6.2Y-4.45
T0
M30
