G04 #@! TF.FileFunction,Legend,Bot*
%FSLAX46Y46*%
G04 Gerber Fmt 4.6, Leading zero omitted, Abs format (unit mm)*
G04 Created by KiCad (PCBNEW 4.0.1-stable) date 11/5/2016 5:28:01 PM*
%MOMM*%
G01*
G04 APERTURE LIST*
%ADD10C,0.100000*%
%ADD11C,0.300000*%
%ADD12C,0.150000*%
G04 APERTURE END LIST*
D10*
D11*
X139271428Y-103294571D02*
X140128571Y-103294571D01*
X139699999Y-103294571D02*
X139699999Y-101794571D01*
X139842856Y-102008857D01*
X139985714Y-102151714D01*
X140128571Y-102223143D01*
X150447428Y-111168571D02*
X151304571Y-111168571D01*
X150875999Y-111168571D02*
X150875999Y-109668571D01*
X151018856Y-109882857D01*
X151161714Y-110025714D01*
X151304571Y-110097143D01*
D12*
X142144000Y-101438000D02*
X142844000Y-101438000D01*
X142844000Y-100238000D02*
X142144000Y-100238000D01*
X142144000Y-109312000D02*
X142844000Y-109312000D01*
X142844000Y-108112000D02*
X142144000Y-108112000D01*
X148240000Y-101438000D02*
X148940000Y-101438000D01*
X148940000Y-100238000D02*
X148240000Y-100238000D01*
X148240000Y-109312000D02*
X148940000Y-109312000D01*
X148940000Y-108112000D02*
X148240000Y-108112000D01*
X142660666Y-103095143D02*
X142708285Y-103142762D01*
X142851142Y-103190381D01*
X142946380Y-103190381D01*
X143089238Y-103142762D01*
X143184476Y-103047524D01*
X143232095Y-102952286D01*
X143279714Y-102761810D01*
X143279714Y-102618952D01*
X143232095Y-102428476D01*
X143184476Y-102333238D01*
X143089238Y-102238000D01*
X142946380Y-102190381D01*
X142851142Y-102190381D01*
X142708285Y-102238000D01*
X142660666Y-102285619D01*
X141708285Y-103190381D02*
X142279714Y-103190381D01*
X141994000Y-103190381D02*
X141994000Y-102190381D01*
X142089238Y-102333238D01*
X142184476Y-102428476D01*
X142279714Y-102476095D01*
X142660666Y-110969143D02*
X142708285Y-111016762D01*
X142851142Y-111064381D01*
X142946380Y-111064381D01*
X143089238Y-111016762D01*
X143184476Y-110921524D01*
X143232095Y-110826286D01*
X143279714Y-110635810D01*
X143279714Y-110492952D01*
X143232095Y-110302476D01*
X143184476Y-110207238D01*
X143089238Y-110112000D01*
X142946380Y-110064381D01*
X142851142Y-110064381D01*
X142708285Y-110112000D01*
X142660666Y-110159619D01*
X142279714Y-110159619D02*
X142232095Y-110112000D01*
X142136857Y-110064381D01*
X141898761Y-110064381D01*
X141803523Y-110112000D01*
X141755904Y-110159619D01*
X141708285Y-110254857D01*
X141708285Y-110350095D01*
X141755904Y-110492952D01*
X142327333Y-111064381D01*
X141708285Y-111064381D01*
X148756666Y-103095143D02*
X148804285Y-103142762D01*
X148947142Y-103190381D01*
X149042380Y-103190381D01*
X149185238Y-103142762D01*
X149280476Y-103047524D01*
X149328095Y-102952286D01*
X149375714Y-102761810D01*
X149375714Y-102618952D01*
X149328095Y-102428476D01*
X149280476Y-102333238D01*
X149185238Y-102238000D01*
X149042380Y-102190381D01*
X148947142Y-102190381D01*
X148804285Y-102238000D01*
X148756666Y-102285619D01*
X148423333Y-102190381D02*
X147804285Y-102190381D01*
X148137619Y-102571333D01*
X147994761Y-102571333D01*
X147899523Y-102618952D01*
X147851904Y-102666571D01*
X147804285Y-102761810D01*
X147804285Y-102999905D01*
X147851904Y-103095143D01*
X147899523Y-103142762D01*
X147994761Y-103190381D01*
X148280476Y-103190381D01*
X148375714Y-103142762D01*
X148423333Y-103095143D01*
X148756666Y-110969143D02*
X148804285Y-111016762D01*
X148947142Y-111064381D01*
X149042380Y-111064381D01*
X149185238Y-111016762D01*
X149280476Y-110921524D01*
X149328095Y-110826286D01*
X149375714Y-110635810D01*
X149375714Y-110492952D01*
X149328095Y-110302476D01*
X149280476Y-110207238D01*
X149185238Y-110112000D01*
X149042380Y-110064381D01*
X148947142Y-110064381D01*
X148804285Y-110112000D01*
X148756666Y-110159619D01*
X147899523Y-110397714D02*
X147899523Y-111064381D01*
X148137619Y-110016762D02*
X148375714Y-110731048D01*
X147756666Y-110731048D01*
X140422381Y-98742667D02*
X141422381Y-99076000D01*
X140422381Y-99409334D01*
X141422381Y-99742667D02*
X140422381Y-99742667D01*
X140422381Y-99980762D01*
X140470000Y-100123620D01*
X140565238Y-100218858D01*
X140660476Y-100266477D01*
X140850952Y-100314096D01*
X140993810Y-100314096D01*
X141184286Y-100266477D01*
X141279524Y-100218858D01*
X141374762Y-100123620D01*
X141422381Y-99980762D01*
X141422381Y-99742667D01*
X141422381Y-100742667D02*
X140422381Y-100742667D01*
X140422381Y-100980762D01*
X140470000Y-101123620D01*
X140565238Y-101218858D01*
X140660476Y-101266477D01*
X140850952Y-101314096D01*
X140993810Y-101314096D01*
X141184286Y-101266477D01*
X141279524Y-101218858D01*
X141374762Y-101123620D01*
X141422381Y-100980762D01*
X141422381Y-100742667D01*
X142692381Y-105481619D02*
X141692381Y-105481619D01*
X141692381Y-105719714D01*
X141740000Y-105862572D01*
X141835238Y-105957810D01*
X141930476Y-106005429D01*
X142120952Y-106053048D01*
X142263810Y-106053048D01*
X142454286Y-106005429D01*
X142549524Y-105957810D01*
X142644762Y-105862572D01*
X142692381Y-105719714D01*
X142692381Y-105481619D01*
X142692381Y-106624476D02*
X142644762Y-106529238D01*
X142597143Y-106481619D01*
X142501905Y-106434000D01*
X142216190Y-106434000D01*
X142120952Y-106481619D01*
X142073333Y-106529238D01*
X142025714Y-106624476D01*
X142025714Y-106767334D01*
X142073333Y-106862572D01*
X142120952Y-106910191D01*
X142216190Y-106957810D01*
X142501905Y-106957810D01*
X142597143Y-106910191D01*
X142644762Y-106862572D01*
X142692381Y-106767334D01*
X142692381Y-106624476D01*
X142025714Y-107814953D02*
X142692381Y-107814953D01*
X142025714Y-107386381D02*
X142549524Y-107386381D01*
X142644762Y-107434000D01*
X142692381Y-107529238D01*
X142692381Y-107672096D01*
X142644762Y-107767334D01*
X142597143Y-107814953D01*
X142025714Y-108148286D02*
X142025714Y-108529238D01*
X141692381Y-108291143D02*
X142549524Y-108291143D01*
X142644762Y-108338762D01*
X142692381Y-108434000D01*
X142692381Y-108529238D01*
X148550381Y-99298286D02*
X149550381Y-99631619D01*
X148550381Y-99964953D01*
X149502762Y-100250667D02*
X149550381Y-100393524D01*
X149550381Y-100631620D01*
X149502762Y-100726858D01*
X149455143Y-100774477D01*
X149359905Y-100822096D01*
X149264667Y-100822096D01*
X149169429Y-100774477D01*
X149121810Y-100726858D01*
X149074190Y-100631620D01*
X149026571Y-100441143D01*
X148978952Y-100345905D01*
X148931333Y-100298286D01*
X148836095Y-100250667D01*
X148740857Y-100250667D01*
X148645619Y-100298286D01*
X148598000Y-100345905D01*
X148550381Y-100441143D01*
X148550381Y-100679239D01*
X148598000Y-100822096D01*
X149502762Y-101203048D02*
X149550381Y-101345905D01*
X149550381Y-101584001D01*
X149502762Y-101679239D01*
X149455143Y-101726858D01*
X149359905Y-101774477D01*
X149264667Y-101774477D01*
X149169429Y-101726858D01*
X149121810Y-101679239D01*
X149074190Y-101584001D01*
X149026571Y-101393524D01*
X148978952Y-101298286D01*
X148931333Y-101250667D01*
X148836095Y-101203048D01*
X148740857Y-101203048D01*
X148645619Y-101250667D01*
X148598000Y-101298286D01*
X148550381Y-101393524D01*
X148550381Y-101631620D01*
X148598000Y-101774477D01*
X149550381Y-102862191D02*
X148550381Y-102862191D01*
X148550381Y-103100286D01*
X148598000Y-103243144D01*
X148693238Y-103338382D01*
X148788476Y-103386001D01*
X148978952Y-103433620D01*
X149121810Y-103433620D01*
X149312286Y-103386001D01*
X149407524Y-103338382D01*
X149502762Y-103243144D01*
X149550381Y-103100286D01*
X149550381Y-102862191D01*
X149550381Y-103862191D02*
X148550381Y-103862191D01*
X149550381Y-104338381D02*
X148550381Y-104338381D01*
X149550381Y-104909810D01*
X148550381Y-104909810D01*
M02*
